<svg id="livetype" xmlns="http://www.w3.org/2000/svg" xmlns:xlink="http://www.w3.org/1999/xlink" viewBox="0 0 119.66 40"><defs><style>.cls-1{fill:#b7b7b7;}.cls-2,.cls-9{fill:#fff;}.cls-3{fill:url(#linear-gradient);}.cls-4{fill:url(#linear-gradient-2);}.cls-5{fill:url(#linear-gradient-3);}.cls-6{fill:url(#linear-gradient-4);}.cls-7,.cls-8{fill:#020101;}.cls-7{opacity:0.2;}.cls-7,.cls-8,.cls-9{isolation:isolate;}.cls-8{opacity:0.12;}.cls-9{opacity:0.25;}</style><linearGradient id="linear-gradient" x1="20.46" y1="-443.05" x2="5.99" y2="-457.52" gradientTransform="matrix(1, 0, 0, -1, 0, -433.24)" gradientUnits="userSpaceOnUse"><stop offset="0" stop-color="#4699d0"/><stop offset="0.01" stop-color="#459ad1"/><stop offset="0.26" stop-color="#1abaeb"/><stop offset="0.51" stop-color="#4ec3ed"/><stop offset="0.76" stop-color="#6ac8e7"/><stop offset="1" stop-color="#72cae5"/></linearGradient><linearGradient id="linear-gradient-2" x1="30.84" y1="-452.78" x2="9.98" y2="-452.78" gradientTransform="matrix(1, 0, 0, -1, 0, -433.24)" gradientUnits="userSpaceOnUse"><stop offset="0" stop-color="#ffe103"/><stop offset="0.41" stop-color="#fdbd00"/><stop offset="0.78" stop-color="#f8a500"/><stop offset="1" stop-color="#f69b00"/></linearGradient><linearGradient id="linear-gradient-3" x1="23.07" y1="-454.76" x2="3.45" y2="-474.38" gradientTransform="matrix(1, 0, 0, -1, 0, -433.24)" gradientUnits="userSpaceOnUse"><stop offset="0" stop-color="#e93a3d"/><stop offset="1" stop-color="#c41463"/></linearGradient><linearGradient id="linear-gradient-4" x1="7.96" y1="-435.69" x2="16.72" y2="-444.45" gradientTransform="matrix(1, 0, 0, -1, 0, -433.24)" gradientUnits="userSpaceOnUse"><stop offset="0" stop-color="#33a071"/><stop offset="0.07" stop-color="#30a772"/><stop offset="0.48" stop-color="#54b867"/><stop offset="0.8" stop-color="#6bbe66"/><stop offset="1" stop-color="#72c066"/></linearGradient></defs><title>Android_Portogal</title><path class="cls-1" d="M109.92,0H8.23L7.31,0a12.18,12.18,0,0,0-2,.17A6.8,6.8,0,0,0,3.4.77,6.42,6.42,0,0,0,1.79,2,6.07,6.07,0,0,0,.61,3.57,6.74,6.74,0,0,0,0,5.47a13.39,13.39,0,0,0-.18,2c0,.31,0,.62,0,.92V31.51c0,.31,0,.61,0,.92a13.39,13.39,0,0,0,.18,2,6.8,6.8,0,0,0,.63,1.91A6.19,6.19,0,0,0,1.79,38,6.19,6.19,0,0,0,3.4,39.13a6.8,6.8,0,0,0,1.91.63,13.39,13.39,0,0,0,2,.18H111.93a13.39,13.39,0,0,0,2-.18,6.91,6.91,0,0,0,1.91-.63A6.19,6.19,0,0,0,117.45,38a6.46,6.46,0,0,0,1.19-1.61,7.12,7.12,0,0,0,.62-1.91,13.39,13.39,0,0,0,.18-2v-.92c0-.36,0-.73,0-1.09V9.49c0-.37,0-.73,0-1.1V7.47a13.39,13.39,0,0,0-.18-2,7.05,7.05,0,0,0-.62-1.9A6.33,6.33,0,0,0,117.45,2,6.42,6.42,0,0,0,115.84.77a6.91,6.91,0,0,0-1.91-.63,12.18,12.18,0,0,0-2-.17L111,0Z"/><path d="M8.23,39.08l-.9,0a11.52,11.52,0,0,1-1.87-.16,5.89,5.89,0,0,1-1.66-.55,5.16,5.16,0,0,1-1.39-1,5.19,5.19,0,0,1-1-1.4,5.79,5.79,0,0,1-.55-1.66,12.1,12.1,0,0,1-.16-1.87c0-.21,0-.91,0-.91V8.39s0-.69,0-.89A12,12,0,0,1,.84,5.63,5.69,5.69,0,0,1,1.39,4a5.06,5.06,0,0,1,1-1.4,5.19,5.19,0,0,1,1.4-1A5.79,5.79,0,0,1,5.46,1,12.1,12.1,0,0,1,7.33.84H111.92a11.86,11.86,0,0,1,1.85.16,6.07,6.07,0,0,1,1.67.55,5.38,5.38,0,0,1,1.4,1,5.53,5.53,0,0,1,1,1.41,5.6,5.6,0,0,1,.53,1.65,12.31,12.31,0,0,1,.18,1.88v.89c0,.38,0,.74,0,1.1V30.42c0,.36,0,.71,0,1.07v.93a13.12,13.12,0,0,1-.17,1.85,5.85,5.85,0,0,1-.54,1.67,5.67,5.67,0,0,1-1,1.39,5.19,5.19,0,0,1-1.4,1,5.66,5.66,0,0,1-1.67.55,11.34,11.34,0,0,1-1.87.16l-.89,0H8.23Z"/><path class="cls-2" d="M59.55,21.06a3.67,3.67,0,1,0,3.68,3.66A3.61,3.61,0,0,0,59.55,21.06Zm0,5.88a2.23,2.23,0,1,1,2.07-2.22A2.12,2.12,0,0,1,59.55,26.94Zm-8-5.88a3.67,3.67,0,1,0,3.68,3.66A3.61,3.61,0,0,0,51.52,21.06Zm0,5.88a2.23,2.23,0,1,1,2.07-2.22A2.12,2.12,0,0,1,51.52,26.94ZM42,22.18v1.56h3.72a3.19,3.19,0,0,1-.85,2A3.78,3.78,0,0,1,42,26.83a4.14,4.14,0,0,1,0-8.27,3.93,3.93,0,0,1,2.8,1.11l1.1-1.1A5.42,5.42,0,0,0,42,17a5.7,5.7,0,1,0,0,11.39,5.22,5.22,0,0,0,4-1.6,5.13,5.13,0,0,0,1.35-3.64,4.71,4.71,0,0,0-.09-1ZM81,23.39a3.41,3.41,0,0,0-3.14-2.33,3.48,3.48,0,0,0-3.46,3.66,3.59,3.59,0,0,0,3.64,3.67,3.63,3.63,0,0,0,3.05-1.63l-1.25-.83a2.07,2.07,0,0,1-1.8,1,1.87,1.87,0,0,1-1.78-1.11l4.9-2Zm-5,1.22a2,2,0,0,1,1.91-2.14,1.43,1.43,0,0,1,1.37.78Zm-4,3.56h1.61V17.39H72Zm-2.64-6.3h-.05a2.54,2.54,0,0,0-1.93-.81,3.67,3.67,0,0,0,0,7.33,2.52,2.52,0,0,0,1.93-.83h.05v.52c0,1.41-.75,2.16-2,2.16a2,2,0,0,1-1.84-1.31l-1.41.58a3.5,3.5,0,0,0,3.25,2.17c1.89,0,3.49-1.11,3.49-3.82V21.28H69.4Zm-1.84,5.07a2.23,2.23,0,0,1,0-4.44,2.06,2.06,0,0,1,2,2.24A2,2,0,0,1,67.56,26.94Zm21-9.55H84.72V28.17h1.61V24.08h2.24a3.35,3.35,0,1,0,0-6.69Zm.05,5.19H86.33V18.89h2.29a1.85,1.85,0,1,1,0,3.69ZM98.56,21a3,3,0,0,0-2.87,1.65l1.43.59a1.53,1.53,0,0,1,1.47-.79,1.55,1.55,0,0,1,1.69,1.39V24a3.52,3.52,0,0,0-1.68-.42c-1.54,0-3.11.85-3.11,2.43a2.5,2.5,0,0,0,2.68,2.37,2.26,2.26,0,0,0,2-1.05h.06v.83h1.55V24A3,3,0,0,0,98.56,21Zm-.2,5.9c-.52,0-1.26-.26-1.26-.91,0-.83.92-1.15,1.71-1.15a2.87,2.87,0,0,1,1.47.36A2,2,0,0,1,98.36,26.94Zm9.13-5.67-1.85,4.67h0l-1.92-4.67h-1.73l2.87,6.53-1.63,3.63h1.67l4.43-10.16ZM93,28.17h1.61V17.39H93Z"/><path class="cls-3" d="M10.66,8.8A1.74,1.74,0,0,0,10.27,10V29.08a1.72,1.72,0,0,0,.39,1.21l.07.06L21.41,19.67v-.25L10.73,8.74Z"/><path class="cls-4" d="M25,23.23l-3.56-3.56v-.25L25,15.86l.08.05,4.22,2.39a1.31,1.31,0,0,1,0,2.49l-4.22,2.4Z"/><path class="cls-5" d="M25.05,23.19l-3.64-3.64L10.66,30.29a1.41,1.41,0,0,0,1.8.05l12.59-7.15"/><path class="cls-6" d="M25.05,15.9,12.46,8.75a1.41,1.41,0,0,0-1.8.05L21.41,19.55Z"/><path class="cls-7" d="M25,23.11,12.46,30.22a1.44,1.44,0,0,1-1.73,0h0l-.07.06h0l.07.06h0a1.42,1.42,0,0,0,1.73,0l12.59-7.15Z"/><path class="cls-8" d="M10.66,30.17A1.75,1.75,0,0,1,10.27,29v.13a1.72,1.72,0,0,0,.39,1.21l.07-.06Z"/><path class="cls-8" d="M29.27,20.67,25,23.11l.08.08,4.22-2.4a1.51,1.51,0,0,0,.9-1.24h0A1.65,1.65,0,0,1,29.27,20.67Z"/><path class="cls-9" d="M12.46,8.88l16.81,9.55a1.61,1.61,0,0,1,.9,1.12h0a1.52,1.52,0,0,0-.9-1.25L12.46,8.75c-1.21-.69-2.19-.12-2.19,1.26v.13C10.27,8.76,11.25,8.19,12.46,8.88Z"/><path class="cls-2" d="M36.73,13.61V8.23h1.65a2.55,2.55,0,0,1,2.72,2.69,2.67,2.67,0,0,1-.74,1.95,2.71,2.71,0,0,1-2,.74Zm.69-4.72V13h1a1.87,1.87,0,0,0,2-2,1.87,1.87,0,0,0-2-2Z"/><path class="cls-2" d="M42.46,13.61h-.69V8.23h.69Z"/><path class="cls-2" d="M46.72,12.17a1.43,1.43,0,0,1-.52,1.14,2,2,0,0,1-1.28.42,1.88,1.88,0,0,1-1.18-.39,2,2,0,0,1-.7-1.07L43.7,12a1.5,1.5,0,0,0,.18.43,1.42,1.42,0,0,0,.64.56,1.16,1.16,0,0,0,.42.08,1.21,1.21,0,0,0,.77-.25.79.79,0,0,0,.3-.65.77.77,0,0,0-.25-.58,2.42,2.42,0,0,0-.87-.45c-.43-.15-.7-.26-.8-.31a1.39,1.39,0,0,1-.86-1.29,1.32,1.32,0,0,1,.47-1,1.74,1.74,0,0,1,1.18-.42A1.82,1.82,0,0,1,46,8.42a1.47,1.47,0,0,1,.6.78l-.64.27a1,1,0,0,0-.36-.5,1,1,0,0,0-.65-.2,1.08,1.08,0,0,0-.69.22.67.67,0,0,0-.27.55.63.63,0,0,0,.21.48,3.48,3.48,0,0,0,1.05.48,2.78,2.78,0,0,1,1.17.68A1.48,1.48,0,0,1,46.72,12.17Z"/><path class="cls-2" d="M48.09,11.43v2.18H47.4V8.23h1.83a1.64,1.64,0,0,1,1.19.46,1.55,1.55,0,0,1,0,2.28,1.69,1.69,0,0,1-1.19.46Zm0-2.54v1.88h1.16a.94.94,0,0,0,.68-.28.94.94,0,0,0-.68-1.6Z"/><path class="cls-2" d="M56.68,10.92a2.71,2.71,0,0,1-.8,2,2.76,2.76,0,0,1-3.93,0,2.71,2.71,0,0,1-.8-2,2.72,2.72,0,0,1,.8-2,2.79,2.79,0,0,1,3.93,0A2.74,2.74,0,0,1,56.68,10.92Zm-4.82,0a2.14,2.14,0,0,0,.58,1.54,2,2,0,0,0,1.47.61,2,2,0,0,0,1.47-.61A2.09,2.09,0,0,0,56,10.92a2.07,2.07,0,0,0-.59-1.54,1.94,1.94,0,0,0-1.47-.61,2,2,0,0,0-1.47.61A2.11,2.11,0,0,0,51.86,10.92Z"/><path class="cls-2" d="M58,13.61h-.69V8.23h.84l2.62,4.18h0l0-1V8.23h.69v5.38h-.72L58,9.22h0l0,1Z"/><path class="cls-2" d="M63.12,13.61h-.69V8.23h.69Zm.5-6.77-.54,1h-.61l.39-1Z"/><path class="cls-2" d="M66.1,13.61h-.72L63.49,8.23h.76l1.48,4.36h0l1.53-4.36h.77Z"/><path class="cls-2" d="M71.68,8.23v.66H69.23v1.7h2.21v.65H69.23V13h2.45v.66H68.54V8.23Z"/><path class="cls-2" d="M75.48,13.61h-3V8.23h.69V13h2.33Z"/><path class="cls-2" d="M78.25,13.61h-.7V8.23h.85L81,12.41h0l0-1V8.23h.69v5.38H81L78.25,9.22h0l0,1Z"/><path class="cls-2" d="M87.83,10.92a2.71,2.71,0,0,1-.8,2,2.78,2.78,0,0,1-3.94,0,2.71,2.71,0,0,1-.79-2,2.71,2.71,0,0,1,.79-2,2.8,2.8,0,0,1,3.94,0A2.74,2.74,0,0,1,87.83,10.92Zm-4.83,0a2.14,2.14,0,0,0,.59,1.54,2.08,2.08,0,0,0,2.94,0,2.13,2.13,0,0,0,.59-1.54,2.11,2.11,0,0,0-.59-1.54,2.08,2.08,0,0,0-2.94,0A2.11,2.11,0,0,0,83,10.92Z"/></svg>